<svg width="95" height="25" viewBox="0 0 95 25" fill="none" xmlns="http://www.w3.org/2000/svg">
<path fill-rule="evenodd" clip-rule="evenodd" d="M12.5988 22.668C12.9393 22.668 13.2759 22.6524 13.6079 22.622C12.9654 22.7443 12.3022 22.8082 11.624 22.8082C5.79705 22.8082 1.07337 18.0846 1.07337 12.2576C1.07337 6.43065 5.79705 1.70697 11.624 1.70697C12.8048 1.70697 13.9403 1.90095 15.0003 2.25877C14.2297 2.08523 13.4259 1.9934 12.5988 1.9934C6.70095 1.9934 1.9934 6.66177 1.9934 12.3307C1.9934 17.9996 6.70095 22.668 12.5988 22.668ZM12.5988 24.6614C19.5569 24.6614 25.1975 19.1408 25.1975 12.3307C25.1975 5.52064 19.5569 0 12.5988 0C6.95922 0 2.18512 3.62657 0.578251 8.62689C2.10307 3.98518 6.47213 0.633601 11.624 0.633601C18.0438 0.633601 23.248 5.83784 23.248 12.2576C23.248 18.6774 18.0438 23.8816 11.624 23.8816C5.21632 23.8816 0.0195786 18.6969 5.51879e-05 12.2938L0 12.3307C0 19.1408 5.64066 24.6614 12.5988 24.6614ZM12.8741 5.41842C12.8741 5.77015 12.589 6.05529 12.2372 6.05529C11.8855 6.05529 11.6004 5.77015 11.6004 5.41842C11.6004 5.06669 11.8855 4.78155 12.2372 4.78155C12.589 4.78155 12.8741 5.06669 12.8741 5.41842ZM13.0658 5.41842C13.0658 5.81603 12.7857 6.14823 12.4121 6.22849V7.70798C13.4593 7.7943 14.2932 8.63305 14.3719 9.68239H18.7984C18.8766 9.29637 19.2178 9.0058 19.627 9.0058C20.0939 9.0058 20.4724 9.38433 20.4724 9.85127C20.4724 10.3182 20.0939 10.6967 19.627 10.6967C19.2191 10.6967 18.8786 10.4079 18.799 10.0236H14.3707C14.2848 11.0656 13.454 11.8964 12.4121 11.9823V19.2701C12.7857 19.3504 13.0658 19.6826 13.0658 20.0802C13.0658 20.5378 12.6948 20.9087 12.2372 20.9087C11.7796 20.9087 11.4087 20.5378 11.4087 20.0802C11.4087 19.6796 11.693 19.3454 12.0709 19.2683V11.9835C11.0215 11.9048 10.1826 11.0709 10.0963 10.0236H5.52383C5.44427 10.4079 5.10383 10.6967 4.69593 10.6967C4.22898 10.6967 3.85045 10.3182 3.85045 9.85127C3.85045 9.38433 4.22898 9.0058 4.69593 9.0058C5.10503 9.0058 5.44628 9.29637 5.52453 9.68239H10.0951C10.1742 8.62773 11.0162 7.7858 12.0709 7.70673V6.23027C11.693 6.15326 11.4087 5.81904 11.4087 5.41842C11.4087 4.96083 11.7796 4.58987 12.2372 4.58987C12.6948 4.58987 13.0658 4.96083 13.0658 5.41842ZM12.2372 20.7171C12.589 20.7171 12.8741 20.4319 12.8741 20.0802C12.8741 19.7285 12.589 19.4433 12.2372 19.4433C11.8855 19.4433 11.6004 19.7285 11.6004 20.0802C11.6004 20.4319 11.8855 20.7171 12.2372 20.7171ZM5.34973 9.85127C5.34973 10.2124 5.05701 10.5051 4.69593 10.5051C4.33484 10.5051 4.04213 10.2124 4.04213 9.85127C4.04213 9.49019 4.33484 9.19747 4.69593 9.19747C5.05701 9.19747 5.34973 9.49019 5.34973 9.85127ZM19.627 10.5051C19.988 10.5051 20.2808 10.2124 20.2808 9.85127C20.2808 9.49019 19.988 9.19747 19.627 9.19747C19.2659 9.19747 18.9732 9.49019 18.9732 9.85127C18.9732 10.2124 19.2659 10.5051 19.627 10.5051Z" fill="white"/>
<path d="M34.6942 17.8307V7.41953H31.1842V5.96129H39.9846V7.41953H36.4916V17.8307H34.6942ZM43.67 18.0342C42.8448 18.0342 42.1101 17.8533 41.4657 17.4916C40.8327 17.1185 40.3353 16.6042 39.9736 15.9485C39.6118 15.2929 39.431 14.5299 39.431 13.6594C39.431 12.7777 39.6062 12.0034 39.9566 11.3364C40.3183 10.6695 40.8157 10.1495 41.4488 9.77646C42.0931 9.40342 42.8392 9.2169 43.687 9.2169C44.5122 9.2169 45.23 9.40342 45.8404 9.77646C46.4509 10.1382 46.9256 10.6243 47.2648 11.2347C47.6039 11.8451 47.7734 12.5177 47.7734 13.2525C47.7734 13.3655 47.7678 13.4899 47.7565 13.6255C47.7565 13.7499 47.7508 13.8912 47.7395 14.0494H41.1944C41.2509 14.8633 41.5166 15.4851 41.9914 15.9146C42.4774 16.3329 43.037 16.542 43.67 16.542C44.1787 16.542 44.6026 16.429 44.9418 16.2029C45.2922 15.9655 45.5522 15.649 45.7217 15.2533H47.5191C47.293 16.0446 46.8409 16.7059 46.1626 17.2372C45.4957 17.7685 44.6648 18.0342 43.67 18.0342ZM43.67 10.6921C43.0709 10.6921 42.5396 10.873 42.0761 11.2347C41.6127 11.5851 41.3301 12.1164 41.2283 12.8286H45.9761C45.9422 12.1729 45.7104 11.653 45.2809 11.2686C44.8513 10.8843 44.3144 10.6921 43.67 10.6921ZM53.284 18.0342C52.4588 18.0342 51.7183 17.8476 51.0627 17.4746C50.4184 17.1016 49.9097 16.5872 49.5366 15.9316C49.1749 15.2646 48.994 14.496 48.994 13.6255C48.994 12.7551 49.1749 11.9921 49.5366 11.3364C49.9097 10.6695 50.4184 10.1495 51.0627 9.77646C51.7183 9.40342 52.4588 9.2169 53.284 9.2169C54.324 9.2169 55.1944 9.4882 55.8952 10.0308C56.6074 10.5734 57.0652 11.3082 57.2687 12.2351H55.3866C55.2735 11.7716 55.0248 11.4099 54.6405 11.1499C54.2561 10.8899 53.804 10.7599 53.284 10.7599C52.8431 10.7599 52.4362 10.873 52.0631 11.099C51.6901 11.3138 51.3905 11.636 51.1644 12.0656C50.9384 12.4838 50.8253 13.0038 50.8253 13.6255C50.8253 14.2473 50.9384 14.7729 51.1644 15.2025C51.3905 15.6207 51.6901 15.9429 52.0631 16.169C52.4362 16.3951 52.8431 16.5081 53.284 16.5081C53.804 16.5081 54.2561 16.3781 54.6405 16.1181C55.0248 15.8581 55.2735 15.4907 55.3866 15.0159H57.2687C57.0765 15.9203 56.6244 16.6494 55.9122 17.2033C55.2 17.7572 54.324 18.0342 53.284 18.0342ZM58.8789 17.8307V5.62217H60.6763V10.7769C60.9589 10.2908 61.3489 9.91211 61.8462 9.64081C62.3549 9.3582 62.9145 9.2169 63.5249 9.2169C64.531 9.2169 65.3223 9.53342 65.8988 10.1665C66.4753 10.7995 66.7636 11.7434 66.7636 12.9981V17.8307H64.9831V13.1847C64.9831 11.5569 64.3332 10.743 63.0332 10.743C62.3549 10.743 61.7897 10.9804 61.3375 11.4551C60.8967 11.9299 60.6763 12.6082 60.6763 13.4899V17.8307H58.8789ZM72.4752 18.0342C71.65 18.0342 70.9152 17.8533 70.2709 17.4916C69.6378 17.1185 69.1404 16.6042 68.7787 15.9485C68.417 15.2929 68.2361 14.5299 68.2361 13.6594C68.2361 12.7777 68.4113 12.0034 68.7617 11.3364C69.1235 10.6695 69.6209 10.1495 70.2539 9.77646C70.8982 9.40342 71.6443 9.2169 72.4921 9.2169C73.3173 9.2169 74.0351 9.40342 74.6456 9.77646C75.256 10.1382 75.7308 10.6243 76.0699 11.2347C76.409 11.8451 76.5786 12.5177 76.5786 13.2525C76.5786 13.3655 76.5729 13.4899 76.5616 13.6255C76.5616 13.7499 76.556 13.8912 76.5447 14.0494H69.9996C70.0561 14.8633 70.3217 15.4851 70.7965 15.9146C71.2826 16.3329 71.8421 16.542 72.4752 16.542C72.9839 16.542 73.4078 16.429 73.7469 16.2029C74.0973 15.9655 74.3573 15.649 74.5269 15.2533H76.3242C76.0982 16.0446 75.646 16.7059 74.9677 17.2372C74.3008 17.7685 73.4699 18.0342 72.4752 18.0342ZM72.4752 10.6921C71.876 10.6921 71.3448 10.873 70.8813 11.2347C70.4178 11.5851 70.1352 12.1164 70.0335 12.8286H74.7812C74.7473 12.1729 74.5156 11.653 74.086 11.2686C73.6565 10.8843 73.1195 10.6921 72.4752 10.6921ZM78.8166 17.9324C78.4774 17.9324 78.1948 17.825 77.9687 17.6103C77.754 17.3842 77.6466 17.1185 77.6466 16.8133C77.6466 16.4968 77.754 16.2311 77.9687 16.0164C78.1948 15.7903 78.4774 15.6772 78.8166 15.6772C79.1557 15.6772 79.4326 15.7903 79.6474 16.0164C79.8622 16.2311 79.9696 16.4968 79.9696 16.8133C79.9696 17.1185 79.8622 17.3842 79.6474 17.6103C79.4326 17.825 79.1557 17.9324 78.8166 17.9324ZM84.29 18.0342C83.5778 18.0342 82.99 17.9155 82.5265 17.6781C82.0631 17.4407 81.7183 17.1298 81.4922 16.7455C81.2661 16.3498 81.1531 15.9203 81.1531 15.4568C81.1531 14.6429 81.4696 13.9986 82.1026 13.5238C82.7357 13.049 83.64 12.8116 84.8156 12.8116H87.02V12.659C87.02 12.0034 86.8391 11.5116 86.4773 11.1838C86.1269 10.856 85.6691 10.6921 85.1039 10.6921C84.6065 10.6921 84.1713 10.8164 83.7983 11.0651C83.4365 11.3025 83.2161 11.6586 83.137 12.1334H81.3396C81.3961 11.523 81.5996 11.003 81.95 10.5734C82.3118 10.1325 82.7639 9.79906 83.3065 9.57298C83.8604 9.33559 84.4652 9.2169 85.1208 9.2169C86.2965 9.2169 87.2065 9.52776 87.8508 10.1495C88.4951 10.7599 88.8173 11.5964 88.8173 12.659V17.8307H87.2573L87.1047 16.3894C86.8673 16.8529 86.5226 17.2429 86.0704 17.5594C85.6182 17.8759 85.0248 18.0342 84.29 18.0342ZM84.6461 16.5759C85.1322 16.5759 85.5391 16.4629 85.8669 16.2368C86.206 15.9994 86.466 15.6885 86.6469 15.3042C86.8391 14.9199 86.9578 14.496 87.003 14.0325H85.0022C84.29 14.0325 83.7813 14.1568 83.4761 14.4055C83.1822 14.6542 83.0352 14.9651 83.0352 15.3381C83.0352 15.7225 83.1765 16.0277 83.4591 16.2538C83.753 16.4685 84.1487 16.5759 84.6461 16.5759ZM91.5913 7.82648C91.2521 7.82648 90.9695 7.72475 90.7434 7.52127C90.5287 7.30649 90.4213 7.04084 90.4213 6.72433C90.4213 6.40781 90.5287 6.14781 90.7434 5.94434C90.9695 5.72956 91.2521 5.62217 91.5913 5.62217C91.9304 5.62217 92.2073 5.72956 92.4221 5.94434C92.6482 6.14781 92.7612 6.40781 92.7612 6.72433C92.7612 7.04084 92.6482 7.30649 92.4221 7.52127C92.2073 7.72475 91.9304 7.82648 91.5913 7.82648ZM90.6926 17.8307V9.42037H92.4899V17.8307H90.6926Z" fill="white"/>
</svg>
